# xmcd
#
# Track frame offsets: 
#        150
#        12312
#        25547
#        39930
#        51840
#        66425
#        79027
#        91457
#        106012
#        118125
#        131910
#        143632
#        157055
#        167762
#        182157
#        196400
#        208245
#        222085
#        234667
#        246652
#        257382
#
# Disc length: 3673 seconds
#
# Revision: 8
# Processed by: cddbd v1.5.2PL0 Copyright (c) Steve Scherf et al.
# Submitted via: ExactAudioCopy v0.95b4
#
DISCID=2d0e5715
DTITLE=Dolly Parton - The Best Of Dolly Parton
DYEAR=1997
DGENRE=Country
TTITLE0=Jolene
TTITLE1=I Will Always Love You
TTITLE2=Lonely Comin' Down
TTITLE3=It's My Time
TTITLE4=Harper Valley P.T.A.
TTITLE5=Mama Say A Prayer
TTITLE6=D.I.V.O.R.C.E.
TTITLE7=We Used To
TTITLE8=Bobby's Arms
TTITLE9=The Seeker
TTITLE10=Hold Me
TTITLE11=Here You Come Again
TTITLE12=Lovin' You
TTITLE13=Sweet Music Man
TTITLE14=I Really Got The Feeling
TTITLE15=Baby I'm Burnin'
TTITLE16=Two Doors Down
TTITLE17=9 To 5
TTITLE18=Me And Little Andy
TTITLE19=Love Is Like A Butterfly
TTITLE20=Do I Ever Cross Your Mind?
EXTD=
EXTT0=
EXTT1=
EXTT2=
EXTT3=
EXTT4=
EXTT5=
EXTT6=
EXTT7=
EXTT8=
EXTT9=
EXTT10=
EXTT11=
EXTT12=
EXTT13=
EXTT14=
EXTT15=
EXTT16=
EXTT17=
EXTT18=
EXTT19=
EXTT20=
PLAYORDER=
